<svg width="1110" height="155" fill="none" xmlns="http://www.w3.org/2000/svg"><rect width="1110" height="155" rx="10" fill="#3A3054"/><mask id="a" style="mask-type:luminance" maskUnits="userSpaceOnUse" x="0" y="0" width="1110" height="155"><rect width="1110" height="155" rx="10" fill="#fff"/></mask><g mask="url(#a)" fill-rule="evenodd" clip-rule="evenodd" fill="#4B3F6B"><path d="M647-86.656c0 48.644 15.5 83.484 73 105.987 57.5 22.505 113.055 1.97 168.786 13.742C944.517 44.846 944.517 120.687 997 167.36c52.48 46.673 163.14 58.009 253.12 10.659C1340.1 130.667 1380.88 20.11 1354-45.078c-26.88-65.188-78.41-124.684-327-124.684-248.593 0-380 34.463-380 83.106ZM-134 109.862c0 48.644 15.5 83.483 73 105.987 57.5 22.504 113.055 1.969 168.786 13.742 55.731 11.773 55.731 87.614 108.214 134.286s163.142 58.009 253.119 10.658C559.096 327.185 599.885 216.628 573 151.44 546.115 86.251 494.593 26.756 246 26.756c-248.593 0-380 34.463-380 83.106Z"/></g></svg>